<?xml version="1.0" encoding="UTF-8" standalone="no"?>
<svg width="62px" height="63px" viewBox="0 0 62 63" version="1.1" xmlns="http://www.w3.org/2000/svg" xmlns:xlink="http://www.w3.org/1999/xlink">
    <!-- Generator: Sketch 39.1 (31720) - http://www.bohemiancoding.com/sketch -->
    <title></title>
    <desc>Created with Sketch.</desc>
    <defs></defs>
    <g id="Page-1" stroke="none" stroke-width="1" fill="none" fill-rule="evenodd">
        <g id="out" fill="#DD0000">
            <g id="Page-1">
                <path d="M44.0758929,38.6383929 L38.2098214,44.5044643 C37.9419629,44.7723228 37.6339303,44.90625 37.2857143,44.90625 C36.9374983,44.90625 36.6294656,44.7723228 36.3616071,44.5044643 L30.8571429,39 L25.3526786,44.5044643 C25.0848201,44.7723228 24.7767875,44.90625 24.4285714,44.90625 C24.0803554,44.90625 23.7723228,44.7723228 23.5044643,44.5044643 L17.6383929,38.6383929 C17.3705344,38.3705344 17.2366071,38.0625017 17.2366071,37.7142857 C17.2366071,37.3660697 17.3705344,37.0580371 17.6383929,36.7901786 L23.1428571,31.2857143 L17.6383929,25.78125 C17.3705344,25.5133915 17.2366071,25.2053589 17.2366071,24.8571429 C17.2366071,24.5089268 17.3705344,24.2008942 17.6383929,23.9330357 L23.5044643,18.0669643 C23.7723228,17.7991058 24.0803554,17.6651786 24.4285714,17.6651786 C24.7767875,17.6651786 25.0848201,17.7991058 25.3526786,18.0669643 L30.8571429,23.5714286 L36.3616071,18.0669643 C36.6294656,17.7991058 36.9374983,17.6651786 37.2857143,17.6651786 C37.6339303,17.6651786 37.9419629,17.7991058 38.2098214,18.0669643 L44.0758929,23.9330357 C44.3437513,24.2008942 44.4776786,24.5089268 44.4776786,24.8571429 C44.4776786,25.2053589 44.3437513,25.5133915 44.0758929,25.78125 L38.5714286,31.2857143 L44.0758929,36.7901786 C44.3437513,37.0580371 44.4776786,37.3660697 44.4776786,37.7142857 C44.4776786,38.0625017 44.3437513,38.3705344 44.0758929,38.6383929 L44.0758929,38.6383929 Z M52.7142857,31.2857143 C52.7142857,27.3214088 51.7366169,23.6651953 49.78125,20.3169643 C47.8258831,16.9687333 45.1741239,14.3169741 41.8258929,12.3616071 C38.4776618,10.4062402 34.8214484,9.42857143 30.8571429,9.42857143 C26.8928373,9.42857143 23.2366239,10.4062402 19.8883929,12.3616071 C16.5401618,14.3169741 13.8884026,16.9687333 11.9330357,20.3169643 C9.97766879,23.6651953 9,27.3214088 9,31.2857143 C9,35.2500198 9.97766879,38.9062333 11.9330357,42.2544643 C13.8884026,45.6026953 16.5401618,48.2544545 19.8883929,50.2098214 C23.2366239,52.1651883 26.8928373,53.1428571 30.8571429,53.1428571 C34.8214484,53.1428571 38.4776618,52.1651883 41.8258929,50.2098214 C45.1741239,48.2544545 47.8258831,45.6026953 49.78125,42.2544643 C51.7366169,38.9062333 52.7142857,35.2500198 52.7142857,31.2857143 L52.7142857,31.2857143 Z M61.7142857,31.2857143 C61.7142857,36.8839566 60.3348352,42.0468514 57.5758929,46.7745536 C54.8169505,51.5022558 51.0736844,55.2455219 46.3459821,58.0044643 C41.6182799,60.7634067 36.4553851,62.1428571 30.8571429,62.1428571 C25.2589006,62.1428571 20.0960058,60.7634067 15.3683036,58.0044643 C10.6406014,55.2455219 6.89733522,51.5022558 4.13839286,46.7745536 C1.37945049,42.0468514 0,36.8839566 0,31.2857143 C0,25.687472 1.37945049,20.5245772 4.13839286,15.796875 C6.89733522,11.0691728 10.6406014,7.32590665 15.3683036,4.56696429 C20.0960058,1.80802192 25.2589006,0.428571429 30.8571429,0.428571429 C36.4553851,0.428571429 41.6182799,1.80802192 46.3459821,4.56696429 C51.0736844,7.32590665 54.8169505,11.0691728 57.5758929,15.796875 C60.3348352,20.5245772 61.7142857,25.687472 61.7142857,31.2857143 L61.7142857,31.2857143 Z" id=""></path>
            </g>
        </g>
    </g>
</svg>