<?xml version="1.0" encoding="UTF-8" standalone="no"?>
<svg width="62px" height="63px" viewBox="0 0 62 63" version="1.1" xmlns="http://www.w3.org/2000/svg" xmlns:xlink="http://www.w3.org/1999/xlink">
    <!-- Generator: Sketch 39.1 (31720) - http://www.bohemiancoding.com/sketch -->
    <title></title>
    <desc>Created with Sketch.</desc>
    <defs></defs>
    <g id="Page-1" stroke="none" stroke-width="1" fill="none" fill-rule="evenodd">
        <g id="in" transform="translate(0.000000, -5.000000)" fill="#00DD00">
            <g id="Page-1">
                <path d="M47.0491071,32.9508929 L30.09375,49.90625 C29.5848189,50.4151811 28.9821463,50.6696429 28.2857143,50.6696429 C27.5892822,50.6696429 26.9866097,50.4151811 26.4776786,49.90625 L14.6651786,38.09375 C14.1562475,37.5848189 13.9017857,36.9821463 13.9017857,36.2857143 C13.9017857,35.5892822 14.1562475,34.9866097 14.6651786,34.4776786 L18.7633929,30.3794643 C19.272324,29.8705332 19.8749965,29.6160714 20.5714286,29.6160714 C21.2678606,29.6160714 21.8705332,29.8705332 22.3794643,30.3794643 L28.2857143,36.2857143 L39.3348214,25.2366071 C39.8437525,24.727676 40.4464251,24.4732143 41.1428571,24.4732143 C41.8392892,24.4732143 42.4419617,24.727676 42.9508929,25.2366071 L47.0491071,29.3348214 C47.5580383,29.8437525 47.8125,30.4464251 47.8125,31.1428571 C47.8125,31.8392892 47.5580383,32.4419617 47.0491071,32.9508929 L47.0491071,32.9508929 Z M52.7142857,36.2857143 C52.7142857,32.3214088 51.7366169,28.6651953 49.78125,25.3169643 C47.8258831,21.9687333 45.1741239,19.3169741 41.8258929,17.3616071 C38.4776618,15.4062402 34.8214484,14.4285714 30.8571429,14.4285714 C26.8928373,14.4285714 23.2366239,15.4062402 19.8883929,17.3616071 C16.5401618,19.3169741 13.8884026,21.9687333 11.9330357,25.3169643 C9.97766879,28.6651953 9,32.3214088 9,36.2857143 C9,40.2500198 9.97766879,43.9062333 11.9330357,47.2544643 C13.8884026,50.6026953 16.5401618,53.2544545 19.8883929,55.2098214 C23.2366239,57.1651883 26.8928373,58.1428571 30.8571429,58.1428571 C34.8214484,58.1428571 38.4776618,57.1651883 41.8258929,55.2098214 C45.1741239,53.2544545 47.8258831,50.6026953 49.78125,47.2544643 C51.7366169,43.9062333 52.7142857,40.2500198 52.7142857,36.2857143 L52.7142857,36.2857143 Z M61.7142857,36.2857143 C61.7142857,41.8839566 60.3348352,47.0468514 57.5758929,51.7745536 C54.8169505,56.5022558 51.0736844,60.2455219 46.3459821,63.0044643 C41.6182799,65.7634067 36.4553851,67.1428571 30.8571429,67.1428571 C25.2589006,67.1428571 20.0960058,65.7634067 15.3683036,63.0044643 C10.6406014,60.2455219 6.89733522,56.5022558 4.13839286,51.7745536 C1.37945049,47.0468514 0,41.8839566 0,36.2857143 C0,30.687472 1.37945049,25.5245772 4.13839286,20.796875 C6.89733522,16.0691728 10.6406014,12.3259067 15.3683036,9.56696429 C20.0960058,6.80802192 25.2589006,5.42857143 30.8571429,5.42857143 C36.4553851,5.42857143 41.6182799,6.80802192 46.3459821,9.56696429 C51.0736844,12.3259067 54.8169505,16.0691728 57.5758929,20.796875 C60.3348352,25.5245772 61.7142857,30.687472 61.7142857,36.2857143 L61.7142857,36.2857143 Z" id=""></path>
            </g>
        </g>
    </g>
</svg>